C:\Users\movea\Dropbox\PhDWork\ExperimentalData\subject9\100\P9S100W06_filtered35.mot
nRows=10
nColumns=28

name C:\Users\movea\Dropbox\PhDWork\ExperimentalData\subject9\100\P9S100W06_filtered35.mot
datacolumns 28
datarows 10
range 0.6920000000 0.7010000000
endheader
time	ground_force_1_vx	ground_force_1_vy	ground_force_1_vz	ground_force_1_px	ground_force_1_py	ground_force_1_pz	ground_moment_1_mx	ground_moment_1_my	ground_moment_1_mz	ground_force_2_vx	ground_force_2_vy	ground_force_2_vz	ground_force_2_px	ground_force_2_py	ground_force_2_pz	ground_moment_2_mx	ground_moment_2_my	ground_moment_2_mz	ground_force_3_vx	ground_force_3_vy	ground_force_3_vz	ground_force_3_px	ground_force_3_py	ground_force_3_pz	ground_moment_3_mx	ground_moment_3_my	ground_moment_3_mz
        0.6920000000	        0.0000000000	        0.0000000000	        0.0000000000	        0.1988394961	        0.0000558755	       -0.3004071324	        0.0000000000	        0.0000000000	        0.0000000000	        0.0000000036	        0.0000000019	        0.0000000177	        0.2029003516	       -0.0000795827	        0.4543649445	        0.0000000004	       -0.0000000009	       -0.0000000001	       20.4519349791	      788.9863879924	      -58.9714432453	        0.2076431971	        0.0000770316	        1.3583900146	       68.2930179855	      -10.8184849150	      -39.8648366981	
        0.6930000000	        0.0000000000	        0.0000000000	        0.0000000000	        0.1988394961	        0.0000558755	       -0.3004071324	        0.0000000000	        0.0000000000	        0.0000000000	        0.0000000061	        0.0000000124	        0.0000000257	        0.2029003516	       -0.0000795827	        0.4543649445	       -0.0000000017	       -0.0000000011	        0.0000000007	       20.4876867759	      790.1856536037	      -59.5605753403	        0.2076431971	        0.0000770316	        1.3583900146	       68.8568354887	      -10.8929344596	      -39.9094079863	
        0.6940000000	        0.0000000000	        0.0000000000	        0.0000000000	        0.1988394961	        0.0000558755	       -0.3004071324	        0.0000000000	        0.0000000000	        0.0000000000	        0.0000000091	        0.0000000268	        0.0000000352	        0.2029003516	       -0.0000795827	        0.4543649445	       -0.0000000045	       -0.0000000013	        0.0000000018	       20.5307449470	      791.3552670703	      -60.1411154113	        0.2076431971	        0.0000770316	        1.3583900146	       69.4216300104	      -10.9665980285	      -39.9532915194	
        0.6950000000	        0.0000000000	        0.0000000000	        0.0000000000	        0.1988394961	        0.0000558755	       -0.3004071324	        0.0000000000	        0.0000000000	        0.0000000000	        0.0000000127	        0.0000000456	        0.0000000459	        0.2029003516	       -0.0000795827	        0.4543649445	       -0.0000000083	       -0.0000000016	        0.0000000033	       20.5807187440	      792.4934524116	      -60.7112880948	        0.2076431971	        0.0000770316	        1.3583900146	       69.9881949860	      -11.0392872698	      -39.9964670956	
        0.6960000000	       -0.0000000000	        0.0000000000	        0.0000000000	        0.1988394961	        0.0000558755	       -0.3004071324	        0.0000000000	        0.0000000000	        0.0000000000	        0.0000000169	        0.0000000690	        0.0000000574	        0.2029003516	       -0.0000795827	        0.4543649445	       -0.0000000131	       -0.0000000018	        0.0000000051	       20.6374472298	      793.6023154488	      -61.2705101260	        0.2076431971	        0.0000770316	        1.3583900146	       70.5569517541	      -11.1110390536	      -40.0388795915	
        0.6970000000	       -0.0000000000	        0.0000000000	        0.0000000000	        0.1988394961	        0.0000558755	       -0.3004071324	        0.0000000000	       -0.0000000000	        0.0000000000	        0.0000000215	        0.0000000971	        0.0000000691	        0.2029003516	       -0.0000795827	        0.4543649445	       -0.0000000190	       -0.0000000020	        0.0000000074	       20.7002301373	      794.6868069320	      -61.8191230376	        0.2076431971	        0.0000770316	        1.3583900146	       71.1280198592	      -11.1820333993	      -40.0805628785	
        0.6980000000	       -0.0000000000	        0.0000000000	        0.0000000000	        0.1988394961	        0.0000558755	       -0.3004071324	        0.0000000000	       -0.0000000000	        0.0000000000	        0.0000000263	        0.0000001296	        0.0000000799	        0.2029003516	       -0.0000795827	        0.4543649445	       -0.0000000259	       -0.0000000020	        0.0000000100	       20.7674079108	      795.7519062999	      -62.3583118009	        0.2076431971	        0.0000770316	        1.3583900146	       71.7011775334	      -11.2524477987	      -40.1216005187	
        0.6990000000	       -0.0000000000	        0.0000000000	        0.0000000000	        0.1988394961	        0.0000558755	       -0.3004071324	        0.0000000000	       -0.0000000000	       -0.0000000000	        0.0000000309	        0.0000001655	        0.0000000885	        0.2029003516	       -0.0000795827	        0.4543649445	       -0.0000000337	       -0.0000000019	        0.0000000130	       20.8371432405	      796.8016262165	      -62.8902463422	        0.2076431971	        0.0000770316	        1.3583900146	       72.2758751091	      -11.3223772769	      -40.1620260051	
        0.7000000000	       -0.0000000000	        0.0000000000	        0.0000000000	        0.1988394961	        0.0000558755	       -0.3004071324	       -0.0000000000	       -0.0000000000	       -0.0000000000	        0.0000000348	        0.0000002030	        0.0000000930	        0.2029003516	       -0.0000795827	        0.4543649445	       -0.0000000421	       -0.0000000016	        0.0000000162	       20.9086336664	      797.8399429593	      -63.4179887321	        0.2076431971	        0.0000770316	        1.3583900146	       72.8515151481	      -11.3918130719	      -40.2018041329	
        0.7010000000	       -0.0000000000	        0.0000000000	        0.0000000000	        0.1988394961	        0.0000558755	       -0.3004071324	       -0.0000000000	       -0.0000000000	       -0.0000000000	        0.0000000374	        0.0000002397	        0.0000000910	        0.2029003516	       -0.0000795827	        0.4543649445	       -0.0000000505	       -0.0000000009	        0.0000000194	       20.9823322239	      798.8702662768	      -63.9446654097	        0.2076431971	        0.0000770316	        1.3583900146	       73.4276256927	      -11.4606517728	      -40.2409191265	
